<?xml version="1.0" encoding="UTF-8"?>
<svg id="Layer_1" xmlns="http://www.w3.org/2000/svg" version="1.1" viewBox="0 0 600 600">
  <!-- Generator: Adobe Illustrator 29.8.1, SVG Export Plug-In . SVG Version: 2.1.1 Build 2)  -->
  <defs>
    <style>
      .st0 {
        fill: #1873b0;
      }

      .st1 {
        fill: #8b8b8b;
      }

      .st2 {
        fill: #328ebe;
      }

      .st3 {
        fill: #d7eff6;
      }
    </style>
  </defs>
  <polygon class="st2" points="366.46 442.89 366.46 588.65 54.26 588.65 54.26 557.35 366.42 437.29 366.46 442.89"/>
  <polygon class="st2" points="54.21 53.4 54.21 139.76 278.72 53.4 54.21 53.4"/>
  <polygon class="st0" points="278.72 96.58 54.21 182.94 54.21 225.37 366.42 105.27 366.42 96.58 366.42 62.85 278.72 96.58"/>
  <polygon class="st0" points="366.42 188.28 366.42 146.34 366.42 145.85 54.21 265.94 54.21 308.37 366.42 188.28 366.42 188.28"/>
  <polygon class="st0" points="366.42 271.28 366.42 228.85 366.42 228.85 54.21 348.95 54.21 391.38 366.42 271.28 366.42 271.28"/>
  <polygon class="st0" points="366.42 354.29 366.42 311.86 366.42 311.86 54.21 431.95 54.21 474.38 366.42 354.29 366.42 354.29"/>
  <polygon class="st0" points="366.42 437.29 366.42 395.35 366.42 394.86 54.21 514.95 54.21 557.39 366.42 437.29 366.42 437.29"/>
  <polygon class="st3" points="366.42 394.86 546.66 508.21 546.66 472.76 366.42 354.29 366.42 394.86"/>
  <polygon class="st3" points="546.67 555.79 546.67 588.65 366.46 588.65 366.42 437.29 546.67 555.79"/>
  <polygon class="st3" points="366.42 311.86 546.66 425.21 546.66 389.76 366.42 271.28 366.42 311.86"/>
  <path class="st1" d="M359.66,63.33"/>
  <polygon class="st3" points="419.51 11.01 419.51 57.17 366.42 22.27 366.42 105.27 366.42 188.28 366.42 228.85 546.66 342.21 546.66 306.75 546.66 223.75 546.66 141.02 546.66 140.75 546.66 90.97 419.51 11.01"/>
</svg>