<?xml version="1.0" encoding="UTF-8"?>
<svg id="Layer_1" data-name="Layer 1" xmlns="http://www.w3.org/2000/svg" viewBox="0 0 214.76 280.67">
  <defs>
    <style>
      .cls-1 {
        fill: #1873b0;
      }
      .cls-2 {
        fill: #328ebe;
      }
      .cls-3 {
        fill: #d7eff6;
      }
    </style>
  </defs>
  <polygon class="cls-2" points="136.17 209.84 136.17 280.67 .02 280.67 .02 265.46 136.15 207.12 136.17 209.84"/>
  <polygon class="cls-2" points="0 20.59 0 62.56 97.91 20.59 0 20.59"/>
  <polygon class="cls-1" points="97.91 41.58 0 83.54 0 104.15 136.15 45.8 136.15 41.58 136.15 25.19 97.91 41.58"/>
  <polygon class="cls-1" points="136.15 86.13 136.15 65.75 136.15 65.52 0 123.87 0 144.48 136.15 86.13 136.15 86.13"/>
  <polygon class="cls-1" points="136.15 126.46 136.15 105.85 136.15 105.85 0 164.2 0 184.82 136.15 126.46 136.15 126.46"/>
  <polygon class="cls-1" points="136.15 166.79 136.15 146.18 136.15 146.18 0 204.53 0 225.14 136.15 166.79 136.15 166.79"/>
  <polygon class="cls-1" points="136.15 207.12 136.15 186.74 136.15 186.51 0 244.86 0 265.48 136.15 207.12 136.15 207.12"/>
  <polygon class="cls-3" points="136.15 186.51 214.76 241.58 214.76 224.36 136.15 166.79 136.15 186.51"/>
  <polygon class="cls-3" points="214.76 264.7 214.76 280.67 136.17 280.67 136.15 207.12 214.76 264.7"/>
  <polygon class="cls-3" points="136.15 146.18 214.76 201.26 214.76 184.03 136.15 126.46 136.15 146.18"/>
  <polygon class="cls-3" points="159.31 0 159.31 22.43 136.15 5.47 136.15 45.8 136.15 86.13 136.15 105.85 214.76 160.92 214.76 143.7 214.76 103.37 214.76 63.17 214.76 63.04 214.76 38.85 159.31 0"/>
</svg>